<svg width="21" height="22" viewBox="0 0 21 22" fill="none" xmlns="http://www.w3.org/2000/svg">
<path d="M0.687489 4.65785L3.22265 4.89848C3.26561 4.90707 3.31718 4.90707 3.36014 4.89848L7.1328 13.5524C7.4078 14.1883 8.06952 14.575 8.75702 14.4891C8.5078 14.6868 8.29296 14.9188 8.11249 15.1852L6.93515 16.8868C6.62577 17.3336 6.73749 17.9524 7.19296 18.2618C7.35624 18.3735 7.55389 18.4336 7.75155 18.4336H8.22421C7.51952 19.0524 7.45936 20.1266 8.07811 20.8313C8.69686 21.536 9.77108 21.5961 10.4758 20.9774C11.1805 20.3586 11.2406 19.2844 10.6219 18.5797C10.5789 18.5282 10.5273 18.4766 10.4758 18.4336H15.5633C14.8586 19.0524 14.7984 20.1266 15.4172 20.8313C16.0359 21.536 17.1101 21.5961 17.8148 20.9774C18.5195 20.3586 18.5797 19.2844 17.9609 18.5797C17.918 18.5282 17.8664 18.4766 17.8148 18.4336H18.5453C18.9492 18.4336 19.2758 18.1071 19.2758 17.7032C19.2758 17.2993 18.9492 16.9727 18.5453 16.9727H8.66249L9.32421 16.0188C9.6078 15.6063 10.0547 15.3227 10.5445 15.2454L17.4109 14.1196C17.8062 14.0508 18.0812 13.6813 18.0125 13.2774C17.9953 13.1743 17.9609 13.0797 17.9008 12.9938L19.8945 12.6672C20.3414 12.5985 20.668 12.2118 20.668 11.7563V6.64301C20.668 6.2391 20.3414 5.92113 19.9461 5.92113C19.9375 5.92113 19.9289 5.92113 19.9289 5.92113L18.7 5.95551L18.4422 4.90707C18.3906 4.71801 18.2016 4.5891 18.0039 4.62348L17.4797 4.70082L17.4625 4.5891C17.2906 3.48051 16.2508 2.71566 15.1422 2.88754C15.0219 2.90473 14.9101 2.9391 14.7898 2.97348C14.6953 2.90473 14.575 2.87035 14.4547 2.88754L13.6984 3.00785L13.6641 2.79301C13.4492 1.37504 12.1086 0.403946 10.6906 0.627384C9.27265 0.850821 8.30155 2.18285 8.5164 3.60082L8.55077 3.81567L7.76874 3.93598C7.5453 3.97035 7.37343 4.1766 7.39061 4.40004L7.51093 6.25629L4.46874 6.34223L3.77265 4.75238C4.1078 4.49457 4.16796 4.01332 3.91015 3.67816C3.78124 3.51488 3.59218 3.40317 3.37733 3.38598L0.833582 3.14535C0.412489 3.10238 0.0429574 3.41176 -1.14036e-05 3.83285C-0.0429802 4.25395 0.266395 4.62348 0.687489 4.65785ZM8.21561 10.6133L7.99218 7.15863L10.5359 12.9852L9.3328 13.1743L8.21561 10.6133ZM8.88593 13.243L8.66249 13.2774C8.52499 13.2946 8.39608 13.2086 8.3789 13.0711C8.3789 13.0625 8.3789 13.0454 8.3789 13.0368L8.30155 11.8852L8.88593 13.243ZM13.8703 5.15629C13.7672 4.52035 14.0594 3.89301 14.6008 3.54926L14.9875 5.09613L13.8875 5.26801L13.8703 5.15629ZM18.1758 6.39379L18.6398 7.45941L19.6195 11.4039V11.4125C19.6367 11.4899 19.5937 11.5672 19.525 11.5844C19.5164 11.5844 19.5164 11.5844 19.5078 11.5844L19.1726 11.636L16.9039 6.42816L18.1758 6.39379ZM16.4484 6.44535L18.743 11.7133L17.5398 11.9024L15.1766 6.48832L16.4484 6.44535ZM17.832 12.5727L17.7117 12.2977L18.9148 12.1086L19.0266 12.375L17.832 12.5727ZM14.5578 13.1141L14.4289 12.8133L15.632 12.6243L15.7609 12.9164L14.5578 13.1141ZM14.257 12.4094L13.3117 10.2352L13.0883 6.77191L15.4601 12.2289L14.257 12.4094ZM13.6039 12.5039C13.5266 12.5125 13.4578 12.461 13.4492 12.3836C13.4492 12.375 13.4492 12.3664 13.4492 12.3664L13.3891 11.4899L13.8187 12.4696L13.6039 12.5039ZM13.9906 12.8821L14.1195 13.1829L12.925 13.3805L12.7875 13.0711L13.9906 12.8821ZM12.4867 13.4493L11.2922 13.6469L11.1547 13.3204L12.3578 13.1313L12.4867 13.4493ZM16.1992 12.8477L16.0703 12.5641L17.2734 12.375L17.3937 12.65L16.1992 12.8477ZM14.7125 6.48832L17.093 11.9625L15.8898 12.1516L13.4406 6.5227L14.7125 6.48832ZM13.0367 6.1102L13.0195 5.8352L13.5351 5.75785L13.5867 6.09301L13.0367 6.1102ZM12.7961 9.06645L11.7133 6.57426L12.6328 6.54848L12.7961 9.06645ZM11.2492 6.58285L12.882 10.3297L13.0195 12.3922C13.0195 12.461 13.0367 12.5211 13.0625 12.5899L12.6156 12.6586L9.97733 6.61723L11.2492 6.58285ZM9.51327 6.63441L12.1687 12.7274L10.9656 12.9164L8.24999 6.66879L9.51327 6.63441ZM10.7078 13.3891L10.8539 13.7157L9.65936 13.9133L9.51327 13.5782L10.7078 13.3891ZM10.6305 19.7141C10.6305 20.4188 10.0633 20.986 9.35858 20.986C8.6539 20.986 8.08671 20.4188 8.08671 19.7141C8.08671 19.0094 8.6539 18.4422 9.35858 18.4422C10.0633 18.4422 10.6305 19.0094 10.6305 19.7141ZM17.9695 19.7141C17.9695 20.4188 17.4023 20.986 16.6976 20.986C15.993 20.986 15.4258 20.4188 15.4258 19.7141C15.4258 19.0094 15.993 18.4422 16.6976 18.4422C17.4023 18.4422 17.9695 19.0094 17.9695 19.7141ZM17.5914 13.3461C17.6172 13.5094 17.5055 13.6641 17.3422 13.6899L10.4758 14.8157C9.86561 14.9188 9.32421 15.2625 8.97186 15.7696L8.07811 17.0758C8.00936 17.1704 8.03515 17.3079 8.12968 17.3766C8.16405 17.4024 8.20702 17.411 8.24999 17.411H18.5539C18.7172 17.411 18.8547 17.5485 18.8547 17.7118C18.8547 17.875 18.7172 18.0125 18.5539 18.0125H7.76015C7.45077 18.0125 7.20155 17.7633 7.20155 17.4539C7.20155 17.3422 7.23593 17.2305 7.30468 17.136L8.48202 15.4344C8.88593 14.85 9.49608 14.4289 10.1922 14.2657L17.325 13.0969C17.4539 13.1055 17.5742 13.2086 17.5914 13.3461ZM19.8344 12.2461L19.4734 12.3063L19.3617 12.0485L19.5851 12.0141C19.8945 11.9625 20.1094 11.6704 20.0578 11.361C20.0578 11.3438 20.0492 11.318 20.0492 11.3008L19.6797 9.83129L20.2555 11.1547V11.7649C20.2469 12.0055 20.075 12.2118 19.8344 12.2461ZM19.9461 6.35082C20.1094 6.34223 20.2469 6.47113 20.2469 6.63441V6.64301V10.0805L19.0523 7.33051L18.8203 6.3852L19.9461 6.35082ZM18.0469 5.05316L18.2703 5.9641L14.0164 6.07582L13.9562 5.68051L17.1273 5.19067L17.1961 5.62895C17.2133 5.74926 17.325 5.8266 17.4453 5.80941C17.5656 5.79223 17.643 5.68051 17.6258 5.5602L17.557 5.12191L18.0469 5.05316ZM15.2109 3.31723C16.0875 3.17973 16.9039 3.78129 17.0414 4.65785L17.0586 4.76957L15.4086 5.02738L14.9961 3.36879C15.0734 3.34301 15.1422 3.32582 15.2109 3.31723ZM14.1023 3.38598C13.9992 3.48051 13.8961 3.58363 13.8101 3.70395L13.7672 3.43754L14.1023 3.38598ZM8.93749 3.54066C8.74843 2.35473 9.55624 1.22895 10.7508 1.03988C11.9453 0.850821 13.0625 1.65863 13.2516 2.85316V2.87035L13.2859 3.0852L8.97186 3.75551L8.93749 3.54066ZM7.8289 4.36566L8.61093 4.24535L8.71405 4.88988C8.75702 5.17348 9.17811 5.10473 9.13515 4.82113L9.03202 4.1766L13.3461 3.50629L13.4492 4.15082C13.4578 4.20238 13.4836 4.24535 13.5266 4.27973C13.4234 4.58051 13.3976 4.90707 13.4492 5.22504L13.4664 5.33676L12.925 5.4227C12.7273 5.45707 12.5812 5.62895 12.5898 5.8352L12.607 6.12738L7.93202 6.25629L7.81171 4.38285C7.81171 4.37426 7.8203 4.36566 7.8289 4.36566ZM7.70858 9.45317L6.51405 6.71176L7.52811 6.68598L7.70858 9.45317ZM6.04999 6.72895L7.78593 10.725L7.94061 13.0625C7.9578 13.4407 8.27577 13.7329 8.6539 13.7157C8.67968 13.7157 8.70546 13.7157 8.73124 13.7071L9.0664 13.6555L9.21249 13.9993L8.76561 14.0766C8.24999 14.1625 7.74296 13.8875 7.52811 13.4063L4.64921 6.76332L6.04999 6.72895ZM0.790614 3.56645L3.32577 3.80707C3.50624 3.82426 3.64374 3.98754 3.62655 4.16801C3.60936 4.34848 3.44608 4.48598 3.26561 4.46879L0.730457 4.23676C0.549989 4.21957 0.412489 4.05629 0.429676 3.86723C0.446864 3.68676 0.610145 3.54926 0.790614 3.56645Z" fill="black"/>
</svg>
