<svg width="18" height="20" viewBox="0 0 18 20" fill="none" xmlns="http://www.w3.org/2000/svg">
<path d="M3.54 2.19011C3.6 3.16471 3.75 4.1174 3.99 5.0263L2.79 6.34036C2.38 5.0263 2.12 3.63558 2.03 2.19011H3.54ZM13.4 15.3527C14.25 15.6155 15.12 15.7797 16 15.8454V17.4771C14.68 17.3785 13.41 17.0938 12.2 16.6558L13.4 15.3527ZM4.5 0H1C0.45 0 0 0.492774 0 1.09505C0 11.3776 7.61 19.711 17 19.711C17.55 19.711 18 19.2182 18 18.6159V14.7942C18 14.1919 17.55 13.6991 17 13.6991C15.76 13.6991 14.55 13.4801 13.43 13.0749C13.33 13.0311 13.22 13.0202 13.12 13.0202C12.86 13.0202 12.61 13.1297 12.41 13.3378L10.21 15.7469C7.38 14.159 5.06 11.6295 3.62 8.53047L5.82 6.12135C6.1 5.81474 6.18 5.38767 6.07 5.0044C5.7 3.77794 5.5 2.46387 5.5 1.09505C5.5 0.492774 5.05 0 4.5 0Z" fill="white"/>
</svg>
